<?xml version="1.0" encoding="UTF-8"?>
<svg version="1.1" viewBox="0 0 2048 1150" width="1280" height="1280" xmlns="http://www.w3.org/2000/svg">
<path transform="translate(0)" d="m0 0h2048v1150h-2048z" fill="#FEFEFE"/>
<path transform="translate(860,562)" d="m0 0 5 1 3 5 1 10 11 30 6 16 5 10 4 6v6l-5 4-6-2-6-7-8-16-39 6-12 16-6 5h-9l-5-4-1-4 8-5 11-17 11-14 9-12 10-15 7-13z" fill="#040304"/>
<path transform="translate(708,562)" d="m0 0 14 2 6 3 4 4v8l-4 5-6 1-4-8-2-1h-15l-10 3-9 6-1 7 5 6 16 6 15 5 9 6 3 6-1 9-6 8-7 6-14 7-16 4h-9l-11-4-2-2 1-5 3-4 7 1h17l13-5 8-6 2-2 1-5-5-2-26-9-9-6-6-7-2-4v-12l6-8 11-7 15-5z" fill="#040304"/>
<path transform="translate(768,585)" d="m0 0 9 1 5 6 1 9-3 8-9 10-10 9-3 2 1 4 2 2 7 1 12-3 12-6 11-9 9-8 5-1-1 6-8 10-9 9-14 9-12 5-4 1h-8l-9-3-5-5-3-7v-19l4-12 6-10 7-6z" fill="#040304"/>
<path transform="translate(857,589)" d="m0 0h2l6 16 1 7-18 3h-9l5-9 7-9z" fill="#fff"/>
<path transform="translate(768,596)" d="m0 0h3l1 5-3 7-7 8-3 3h-3l2-10 6-10z" fill="#fff"/>
</svg>
